<svg xmlns="http://www.w3.org/2000/svg" viewBox="0 0 572.86 861.48"><defs><style>.a{fill:#008edf;}</style></defs><path class="a" d="M336.17,157.24H598.66a13.42,13.42,0,0,1,13.42,13.42c0,63.62,19.2,94.15,45.78,136.39,19.68,31.3,44.17,70.23,65.63,132.17,10,23,19.6,49.26,28.85,74.66,17.06,46.87,34.71,95.33,53.42,117a64.73,64.73,0,0,1-98.06,84.52c-20.23-23.47-41.33-54.51-61.35-90.06V901c0,36.3-27.34,64.73-62.25,64.73-35.67,0-63.62-28.43-63.62-64.73V758.93a69.2,69.2,0,0,1-25.23,4.82c-31.41,0-57.67-21.66-63.51-50.28a65.72,65.72,0,0,1-27.48,6c-28.78,0-53.24-18.18-61.63-43.25a65.6,65.6,0,0,1-29.34,6.89c-35.69,0-64.73-28-64.73-62.35V499a19.53,19.53,0,0,1,.2-2.68V397.66c0-56.58,24.13-105.11,45.42-147.93,15.32-30.81,28.56-57.43,28.56-79.07A13.42,13.42,0,0,1,336.17,157.24Zm249.34,26.85h-237c-3.62,23.92-16.16,49.13-30.31,77.6-20,40.17-42.62,85.7-42.62,136V497.1c0,.22,0,.45,0,.68,0,.6-.1,1.21-.18,1.82V620.75c0,19.58,17,35.5,37.88,35.5a38.61,38.61,0,0,0,29.44-13.53,13.42,13.42,0,0,1,23.65,8.69v5.7c0,19.57,17,35.5,37.88,35.5a38.56,38.56,0,0,0,29.46-13.55,13.42,13.42,0,0,1,23.65,8.69v13.66c0,19.57,17,35.49,37.88,35.49,10.88,0,22-4.54,28.92-11.85a13.43,13.43,0,0,1,23.16,9.25V901c0,21.24,16.15,37.88,36.77,37.88,20.18,0,35.39-16.28,35.39-37.88V570.56A13.43,13.43,0,0,1,645,564.74C671,618.6,700.45,665.89,728,697.91a37.88,37.88,0,0,0,57.38-49.46c-21.92-25.43-39.6-74-58.32-125.39-9.17-25.18-18.65-51.23-28.43-73.56-.14-.33-.27-.66-.39-1-20.49-59.32-43.16-95.36-63.15-127.15C609.06,279.9,588.11,246.6,585.51,184.09Z" transform="translate(-248.56 -104.25)"/><path class="a" d="M533.9,630.7a13.43,13.43,0,0,1,13.43,13.43v109a13.43,13.43,0,1,1-26.85,0v-109A13.42,13.42,0,0,1,533.9,630.7Z" transform="translate(-248.56 -104.25)"/><path class="a" d="M632.92,511.21a13.43,13.43,0,0,1,13.43,13.43v70.09a13.43,13.43,0,0,1-26.86,0V524.64A13.43,13.43,0,0,1,632.92,511.21Z" transform="translate(-248.56 -104.25)"/><path class="a" d="M446,620.31a13.43,13.43,0,0,1,13.43,13.42v77.88a13.43,13.43,0,0,1-26.86,0V633.73A13.42,13.42,0,0,1,446,620.31Z" transform="translate(-248.56 -104.25)"/><path class="a" d="M355.11,599.55A13.42,13.42,0,0,1,368.53,613v59.71a13.42,13.42,0,1,1-26.84,0V613A13.42,13.42,0,0,1,355.11,599.55Z" transform="translate(-248.56 -104.25)"/><path class="a" d="M334.41,104.25H613.75a32.64,32.64,0,0,1,32.6,32.61v10.92a32.64,32.64,0,0,1-32.6,32.6H334.41a32.65,32.65,0,0,1-32.61-32.6V136.86A32.65,32.65,0,0,1,334.41,104.25Zm279.34,49.27a5.75,5.75,0,0,0,5.74-5.74V136.86a5.76,5.76,0,0,0-5.74-5.75H334.41a5.77,5.77,0,0,0-5.76,5.75v10.92a5.76,5.76,0,0,0,5.76,5.74Z" transform="translate(-248.56 -104.25)"/></svg>